<?xml version="1.0" encoding="iso-8859-1"?>
<!-- Generator: Adobe Illustrator 20.1.0, SVG Export Plug-In . SVG Version: 6.00 Build 0)  -->
<svg xmlns="http://www.w3.org/2000/svg" xmlns:xlink="http://www.w3.org/1999/xlink" version="1.1" id="&#1057;&#1083;&#1086;&#1081;_1" x="0px" y="0px" viewBox="0 0 64 64" style="enable-background:new 0 0 64 64;" xml:space="preserve">
<linearGradient id="SVGID_1__43628" gradientUnits="userSpaceOnUse" x1="44" y1="6.3333" x2="44" y2="57.8344" spreadMethod="reflect">
	<stop offset="0" style="stop-color:#1A6DFF"/>
	<stop offset="1" style="stop-color:#C822FF"/>
</linearGradient>
<path style="fill:url(#SVGID_1__43628);" d="M44,23c1.549,0,9-4.419,9-11c0-2.757-2.243-5-5-5c-1.634,0-3.087,0.788-4,2.003  C43.087,7.788,41.634,7,40,7c-2.757,0-5,2.243-5,5C35,18.581,42.451,23,44,23z M40,9c1.654,0,3,1.346,3,3v2h2v-2  c0-1.654,1.346-3,3-3s3,1.346,3,3c0,5.119-5.953,8.682-7,8.988c-1.047-0.307-7-3.869-7-8.988C37,10.346,38.346,9,40,9z"/>
<linearGradient id="SVGID_2__43628" gradientUnits="userSpaceOnUse" x1="32" y1="6.3333" x2="32" y2="57.8344" spreadMethod="reflect">
	<stop offset="0" style="stop-color:#1A6DFF"/>
	<stop offset="1" style="stop-color:#C822FF"/>
</linearGradient>
<path style="fill:url(#SVGID_2__43628);" d="M56.043,42.207C57.223,41.395,58,40.037,58,38.5c0-1.665-0.919-3.105-2.267-3.883  C56.514,33.807,57,32.711,57,31.5c0-2.481-2.019-4.5-4.5-4.5H33c-0.552,0-1-0.448-1-1v-9.5c0-3.032-2.468-5.5-5.5-5.5  S21,13.468,21,16.5V26c0,1.654-1.346,3-3,3h-0.184c-0.414-1.162-1.514-2-2.816-2H9c-1.654,0-3,1.346-3,3v24c0,1.654,1.346,3,3,3h6  c1.069,0,2.002-0.566,2.534-1.41C18.434,56.459,19.653,57,21,57h28.5c2.481,0,4.5-2.019,4.5-4.5c0-0.935-0.287-1.803-0.776-2.522  c2.376-0.12,4.276-2.073,4.276-4.478C57.5,44.195,56.933,43.029,56.043,42.207z M16,54c0,0.552-0.448,1-1,1H9c-0.552,0-1-0.448-1-1  V41h4v-2H8v-2h4v-2H8v-2h4v-2H8v-1c0-0.552,0.448-1,1-1h6c0.552,0,1,0.448,1,1v21v1V54z M53,48h-3.5H43h-1v2h1h6.5  c1.379,0,2.5,1.121,2.5,2.5S50.879,55,49.5,55H21c-1.654,0-3-1.346-3-3v-1V31c2.757,0,5-2.243,5-5v-9.5c0-1.93,1.57-3.5,3.5-3.5  s3.5,1.57,3.5,3.5V26c0,1.654,1.346,3,3,3h19.5c1.379,0,2.5,1.121,2.5,2.5S53.879,34,52.5,34H46h-2v2h2h6.5h1  c1.379,0,2.5,1.121,2.5,2.5S54.879,41,53.5,41H53h-8h-1v2h1h8c1.379,0,2.5,1.121,2.5,2.5S54.379,48,53,48z"/>
<linearGradient id="SVGID_3__43628" gradientUnits="userSpaceOnUse" x1="38" y1="6.3333" x2="38" y2="57.8344" spreadMethod="reflect">
	<stop offset="0" style="stop-color:#1A6DFF"/>
	<stop offset="1" style="stop-color:#C822FF"/>
</linearGradient>
<rect x="37" y="33" style="fill:url(#SVGID_3__43628);" width="2" height="4"/>
<linearGradient id="SVGID_4__43628" gradientUnits="userSpaceOnUse" x1="38" y1="6.3333" x2="38" y2="57.8344" spreadMethod="reflect">
	<stop offset="0" style="stop-color:#1A6DFF"/>
	<stop offset="1" style="stop-color:#C822FF"/>
</linearGradient>
<rect x="37" y="40" style="fill:url(#SVGID_4__43628);" width="2" height="4"/>
<linearGradient id="SVGID_5__43628" gradientUnits="userSpaceOnUse" x1="38" y1="6.3333" x2="38" y2="57.8344" spreadMethod="reflect">
	<stop offset="0" style="stop-color:#1A6DFF"/>
	<stop offset="1" style="stop-color:#C822FF"/>
</linearGradient>
<rect x="37" y="47" style="fill:url(#SVGID_5__43628);" width="2" height="4"/>
<linearGradient id="SVGID_6__43628" gradientUnits="userSpaceOnUse" x1="12" y1="48.75" x2="12" y2="53.5" spreadMethod="reflect">
	<stop offset="0" style="stop-color:#6DC7FF"/>
	<stop offset="1" style="stop-color:#E6ABFF"/>
</linearGradient>
<path style="fill:url(#SVGID_6__43628);" d="M14,52c0,0.552-0.448,1-1,1h-2c-0.552,0-1-0.448-1-1v-2c0-0.552,0.448-1,1-1h2  c0.552,0,1,0.448,1,1V52z"/>
</svg>
