<?xml version="1.0" encoding="iso-8859-1"?>
<!-- Generator: Adobe Illustrator 20.1.0, SVG Export Plug-In . SVG Version: 6.00 Build 0)  -->
<svg xmlns="http://www.w3.org/2000/svg" xmlns:xlink="http://www.w3.org/1999/xlink" version="1.1" id="&#1057;&#1083;&#1086;&#1081;_1" x="0px" y="0px" viewBox="0 0 64 64" style="enable-background:new 0 0 64 64;" xml:space="preserve">
<linearGradient id="SVGID_1__43602" gradientUnits="userSpaceOnUse" x1="32" y1="6.75" x2="32" y2="57.5098" spreadMethod="reflect">
	<stop offset="0" style="stop-color:#1A6DFF"/>
	<stop offset="1" style="stop-color:#C822FF"/>
</linearGradient>
<path style="fill:url(#SVGID_1__43602);" d="M52,57H12c-2.757,0-5-2.243-5-5V12c0-2.757,2.243-5,5-5h40c2.757,0,5,2.243,5,5v40  C57,54.757,54.757,57,52,57z M12,9c-1.654,0-3,1.346-3,3v40c0,1.654,1.346,3,3,3h40c1.654,0,3-1.346,3-3V12c0-1.654-1.346-3-3-3H12z  "/>
<linearGradient id="SVGID_2__43602" gradientUnits="userSpaceOnUse" x1="32" y1="6.75" x2="32" y2="57.5098" spreadMethod="reflect">
	<stop offset="0" style="stop-color:#1A6DFF"/>
	<stop offset="1" style="stop-color:#C822FF"/>
</linearGradient>
<path style="fill:url(#SVGID_2__43602);" d="M48,51H16c-1.654,0-3-1.346-3-3V16c0-1.654,1.346-3,3-3h32c1.654,0,3,1.346,3,3v1.418  L31.995,36.167l-7.872-7.872l-2.828,2.824l9.99,9.791c0.188,0.188,0.439,0.09,0.706,0.09c0.001,0,0.002,0,0.003,0  c0.269,0,0.52,0.097,0.708-0.094L51,22.563V48C51,49.654,49.654,51,48,51z M16,15c-0.552,0-1,0.448-1,1v32c0,0.552,0.448,1,1,1h32  c0.552,0,1-0.448,1-1V27.438L34.125,42.312C33.559,42.885,32.805,43,32,43c-0.003,0-0.006,0-0.009,0  c-0.801,0-1.554-0.109-2.12-0.676l-9.99-9.889c-0.781-0.78-0.781-2,0-2.781l2.824-2.799c0.781-0.781,2.051-0.769,2.832,0.013  l6.468,6.474L49,16.582V16c0-0.552-0.448-1-1-1H16z"/>
<linearGradient id="SVGID_3__43602" gradientUnits="userSpaceOnUse" x1="22" y1="37.25" x2="22" y2="47.1147" spreadMethod="reflect">
	<stop offset="0" style="stop-color:#6DC7FF"/>
	<stop offset="1" style="stop-color:#E6ABFF"/>
</linearGradient>
<path style="fill:url(#SVGID_3__43602);" d="M27,47h-9c-0.552,0-1-0.448-1-1v-9L27,47z"/>
</svg>
