<?xml version="1.0" encoding="iso-8859-1"?>
<!-- Generator: Adobe Illustrator 20.1.0, SVG Export Plug-In . SVG Version: 6.00 Build 0)  -->
<svg xmlns="http://www.w3.org/2000/svg" xmlns:xlink="http://www.w3.org/1999/xlink" version="1.1" id="&#1057;&#1083;&#1086;&#1081;_1" x="0px" y="0px" viewBox="0 0 64 64" style="enable-background:new 0 0 64 64;" xml:space="preserve">
<linearGradient id="SVGID_1__43651" gradientUnits="userSpaceOnUse" x1="32" y1="5.7502" x2="32" y2="58.0056" spreadMethod="reflect">
	<stop offset="0" style="stop-color:#1A6DFF"/>
	<stop offset="1" style="stop-color:#C822FF"/>
</linearGradient>
<path style="fill:url(#SVGID_1__43651);" d="M32,57.997c-1.267,0-2.533-0.481-3.497-1.445L7.448,35.497c-1.928-1.929-1.928-5.065,0-6.994  l4.252-4.252C10.599,22.724,10,20.892,10,19c0-4.963,4.037-9,9-9c1.892,0,3.724,0.599,5.251,1.7l4.252-4.252  c1.928-1.928,5.066-1.928,6.994,0l21.055,21.055c1.928,1.929,1.928,5.065,0,6.994L35.497,56.552  C34.533,57.516,33.267,57.997,32,57.997z M19,12c-3.859,0-7,3.141-7,7c0,1.716,0.635,3.369,1.786,4.657l0.631,0.705l-5.555,5.555  c-1.147,1.148-1.147,3.018,0,4.166l21.055,21.055c1.148,1.147,3.018,1.147,4.166,0l21.055-21.055c1.147-1.148,1.147-3.018,0-4.166  L34.083,8.863c-1.15-1.148-3.02-1.148-4.166,0l-5.555,5.555l-0.705-0.631C22.369,12.635,20.716,12,19,12z"/>
<linearGradient id="SVGID_2__43651" gradientUnits="userSpaceOnUse" x1="32" y1="5.7502" x2="32" y2="58.0056" spreadMethod="reflect">
	<stop offset="0" style="stop-color:#1A6DFF"/>
	<stop offset="1" style="stop-color:#C822FF"/>
</linearGradient>
<path style="fill:url(#SVGID_2__43651);" d="M32,54.17c-0.802,0-1.557-0.313-2.124-0.88L10.71,34.124C10.143,33.557,9.83,32.802,9.83,32  s0.313-1.557,0.88-2.124l4.583-4.583l1.414,1.414l-4.583,4.583c-0.189,0.19-0.294,0.442-0.294,0.71s0.104,0.52,0.294,0.71  L31.29,51.876c0.381,0.379,1.039,0.379,1.42,0L51.876,32.71c0.189-0.19,0.294-0.442,0.294-0.71s-0.104-0.52-0.294-0.71L32.71,12.124  c-0.381-0.379-1.039-0.379-1.42,0l-4.583,4.583l-1.414-1.414l4.583-4.583c1.135-1.135,3.113-1.135,4.248,0L53.29,29.876  c0.567,0.567,0.88,1.322,0.88,2.124s-0.313,1.557-0.88,2.124L34.124,53.29C33.557,53.858,32.802,54.17,32,54.17z"/>
<linearGradient id="SVGID_3__43651" gradientUnits="userSpaceOnUse" x1="19" y1="13.5002" x2="19" y2="24.5031" spreadMethod="reflect">
	<stop offset="0" style="stop-color:#6DC7FF"/>
	<stop offset="1" style="stop-color:#E6ABFF"/>
</linearGradient>
<circle style="fill:url(#SVGID_3__43651);" cx="19" cy="19" r="5"/>
<linearGradient id="SVGID_4__43651" gradientUnits="userSpaceOnUse" x1="32" y1="5.75" x2="32" y2="58.0054" spreadMethod="reflect">
	<stop offset="0" style="stop-color:#1A6DFF"/>
	<stop offset="1" style="stop-color:#C822FF"/>
</linearGradient>
<rect x="31" y="20" style="fill:url(#SVGID_4__43651);" width="2" height="16"/>
<linearGradient id="SVGID_5__43651" gradientUnits="userSpaceOnUse" x1="32" y1="5.7502" x2="32" y2="58.0056" spreadMethod="reflect">
	<stop offset="0" style="stop-color:#1A6DFF"/>
	<stop offset="1" style="stop-color:#C822FF"/>
</linearGradient>
<path style="fill:url(#SVGID_5__43651);" d="M32,44c-1.103,0-2-0.897-2-2s0.897-2,2-2s2,0.897,2,2S33.103,44,32,44z M32,41.998V42V41.998z  "/>
</svg>
