<?xml version="1.0" encoding="iso-8859-1"?>
<!-- Generator: Adobe Illustrator 20.1.0, SVG Export Plug-In . SVG Version: 6.00 Build 0)  -->
<svg xmlns="http://www.w3.org/2000/svg" xmlns:xlink="http://www.w3.org/1999/xlink" version="1.1" id="&#1057;&#1083;&#1086;&#1081;_1" x="0px" y="0px" viewBox="0 0 64 64" style="enable-background:new 0 0 64 64;" xml:space="preserve">
<linearGradient id="SVGID_1__48255" gradientUnits="userSpaceOnUse" x1="14" y1="14.8333" x2="14" y2="17.6716" spreadMethod="reflect">
	<stop offset="0" style="stop-color:#6DC7FF"/>
	<stop offset="1" style="stop-color:#E6ABFF"/>
</linearGradient>
<rect x="7" y="15" style="fill:url(#SVGID_1__48255);" width="14" height="2"/>
<linearGradient id="SVGID_2__48255" gradientUnits="userSpaceOnUse" x1="25" y1="30.6667" x2="25" y2="33.5" spreadMethod="reflect">
	<stop offset="0" style="stop-color:#6DC7FF"/>
	<stop offset="1" style="stop-color:#E6ABFF"/>
</linearGradient>
<rect x="7" y="31" style="fill:url(#SVGID_2__48255);" width="36" height="2"/>
<linearGradient id="SVGID_3__48255" gradientUnits="userSpaceOnUse" x1="19.5" y1="46.8333" x2="19.5" y2="49.8518" spreadMethod="reflect">
	<stop offset="0" style="stop-color:#6DC7FF"/>
	<stop offset="1" style="stop-color:#E6ABFF"/>
</linearGradient>
<rect x="7" y="47" style="fill:url(#SVGID_3__48255);" width="25" height="2"/>
<linearGradient id="SVGID_4__48255" gradientUnits="userSpaceOnUse" x1="32" y1="8" x2="32" y2="57.1692" spreadMethod="reflect">
	<stop offset="0" style="stop-color:#1A6DFF"/>
	<stop offset="1" style="stop-color:#C822FF"/>
</linearGradient>
<path style="fill:url(#SVGID_4__48255);" d="M55,10H9c-1.654,0-3,1.346-3,3v6c0,1.654,1.346,3,3,3h46c1.654,0,3-1.346,3-3v-6  C58,11.346,56.654,10,55,10z M8,19v-6c0-0.551,0.449-1,1-1h11v8H9C8.449,20,8,19.551,8,19z M56,19c0,0.551-0.449,1-1,1H22v-8h33  c0.551,0,1,0.449,1,1V19z"/>
<linearGradient id="SVGID_5__48255" gradientUnits="userSpaceOnUse" x1="32" y1="8" x2="32" y2="57.1692" spreadMethod="reflect">
	<stop offset="0" style="stop-color:#1A6DFF"/>
	<stop offset="1" style="stop-color:#C822FF"/>
</linearGradient>
<path style="fill:url(#SVGID_5__48255);" d="M55,26H9c-1.654,0-3,1.346-3,3v6c0,1.654,1.346,3,3,3h46c1.654,0,3-1.346,3-3v-6  C58,27.346,56.654,26,55,26z M8,35v-6c0-0.551,0.449-1,1-1h33v8H9C8.449,36,8,35.551,8,35z M56,35c0,0.551-0.449,1-1,1H44v-8h11  c0.551,0,1,0.449,1,1V35z"/>
<linearGradient id="SVGID_6__48255" gradientUnits="userSpaceOnUse" x1="32" y1="8" x2="32" y2="57.1692" spreadMethod="reflect">
	<stop offset="0" style="stop-color:#1A6DFF"/>
	<stop offset="1" style="stop-color:#C822FF"/>
</linearGradient>
<path style="fill:url(#SVGID_6__48255);" d="M55,42H9c-1.654,0-3,1.346-3,3v6c0,1.654,1.346,3,3,3h46c1.654,0,3-1.346,3-3v-6  C58,43.346,56.654,42,55,42z M8,51v-6c0-0.551,0.449-1,1-1h22v8H9C8.449,52,8,51.551,8,51z M56,51c0,0.551-0.449,1-1,1H33v-8h22  c0.551,0,1,0.449,1,1V51z"/>
</svg>
