<?xml version="1.0" encoding="iso-8859-1"?>
<!-- Generator: Adobe Illustrator 20.1.0, SVG Export Plug-In . SVG Version: 6.00 Build 0)  -->
<svg xmlns="http://www.w3.org/2000/svg" xmlns:xlink="http://www.w3.org/1999/xlink" version="1.1" id="&#1057;&#1083;&#1086;&#1081;_1" x="0px" y="0px" viewBox="0 0 64 64" style="enable-background:new 0 0 64 64;" xml:space="preserve">
<linearGradient id="SVGID_1__48144" gradientUnits="userSpaceOnUse" x1="32" y1="5.5" x2="32" y2="59.5284" spreadMethod="reflect">
	<stop offset="0" style="stop-color:#1A6DFF"/>
	<stop offset="1" style="stop-color:#C822FF"/>
</linearGradient>
<path style="fill:url(#SVGID_1__48144);" d="M32,58C17.664,58,6,46.337,6,32S17.664,6,32,6s26,11.663,26,26S46.336,58,32,58z M32,8  C18.767,8,8,18.767,8,32s10.767,24,24,24s24-10.767,24-24S45.233,8,32,8z"/>
<linearGradient id="SVGID_2__48144" gradientUnits="userSpaceOnUse" x1="28.4751" y1="5.5" x2="28.4751" y2="59.5284" spreadMethod="reflect">
	<stop offset="0" style="stop-color:#1A6DFF"/>
	<stop offset="1" style="stop-color:#C822FF"/>
</linearGradient>
<path style="fill:url(#SVGID_2__48144);" d="M32,52c-11.028,0-20-8.972-20-20c0-4.385,1.391-8.546,4.021-12.033l0.692-0.918L44.95,47.285  l-0.917,0.692C40.546,50.609,36.386,52,32,52z M16.952,22.115C15.017,25.048,14,28.441,14,32c0,9.925,8.075,18,18,18  c3.559,0,6.953-1.018,9.884-2.952L16.952,22.115z"/>
<linearGradient id="SVGID_3__48144" gradientUnits="userSpaceOnUse" x1="35.8052" y1="5.5" x2="35.8052" y2="59.5284" spreadMethod="reflect">
	<stop offset="0" style="stop-color:#1A6DFF"/>
	<stop offset="1" style="stop-color:#C822FF"/>
</linearGradient>
<path style="fill:url(#SVGID_3__48144);" d="M47.726,44.39L19.61,16.273l0.976-0.684C23.941,13.241,27.888,12,32,12  c11.028,0,20,8.972,20,20c0,4.111-1.242,8.059-3.591,11.413L47.726,44.39z M22.739,16.573l24.687,24.688  C49.113,38.474,50,35.296,50,32c0-9.925-8.075-18-18-18C28.704,14,25.526,14.887,22.739,16.573z"/>
<linearGradient id="SVGID_4__48144" gradientUnits="userSpaceOnUse" x1="26.235" y1="28.75" x2="26.235" y2="46.8124" spreadMethod="reflect">
	<stop offset="0" style="stop-color:#6DC7FF"/>
	<stop offset="1" style="stop-color:#E6ABFF"/>
</linearGradient>
<path style="fill:url(#SVGID_4__48144);" d="M34.47,45.78C33.67,45.93,32.84,46,32,46c-7.73,0-14-6.27-14-14c0-0.84,0.07-1.67,0.22-2.47  L34.47,45.78z"/>
<linearGradient id="SVGID_5__48144" gradientUnits="userSpaceOnUse" x1="37.765" y1="14.75" x2="37.765" y2="34.5395" spreadMethod="reflect">
	<stop offset="0" style="stop-color:#6DC7FF"/>
	<stop offset="1" style="stop-color:#E6ABFF"/>
</linearGradient>
<path style="fill:url(#SVGID_5__48144);" d="M46,32c0,0.84-0.07,1.67-0.22,2.47L29.53,18.22C30.33,18.07,31.16,18,32,18  C39.73,18,46,24.27,46,32z"/>
</svg>
