<?xml version="1.0" encoding="iso-8859-1"?>
<!-- Generator: Adobe Illustrator 20.1.0, SVG Export Plug-In . SVG Version: 6.00 Build 0)  -->
<svg xmlns="http://www.w3.org/2000/svg" xmlns:xlink="http://www.w3.org/1999/xlink" version="1.1" id="&#1057;&#1083;&#1086;&#1081;_1" x="0px" y="0px" viewBox="0 0 64 64" style="enable-background:new 0 0 64 64;" xml:space="preserve">
<linearGradient id="SVGID_1__44852" gradientUnits="userSpaceOnUse" x1="48" y1="12" x2="48" y2="19.75" spreadMethod="reflect">
	<stop offset="0" style="stop-color:#6DC7FF"/>
	<stop offset="1" style="stop-color:#E6ABFF"/>
</linearGradient>
<path style="fill:url(#SVGID_1__44852);" d="M54,18c0,0.552-0.448,1-1,1H43c-0.552,0-1-0.448-1-1v-4c0-0.552,0.448-1,1-1h10  c0.552,0,1,0.448,1,1V18z"/>
<linearGradient id="SVGID_2__44852" gradientUnits="userSpaceOnUse" x1="48" y1="27.5" x2="48" y2="37.0131" spreadMethod="reflect">
	<stop offset="0" style="stop-color:#6DC7FF"/>
	<stop offset="1" style="stop-color:#E6ABFF"/>
</linearGradient>
<path style="fill:url(#SVGID_2__44852);" d="M54,34c0,0.552-0.448,1-1,1H43c-0.552,0-1-0.448-1-1v-4c0-0.552,0.448-1,1-1h10  c0.552,0,1,0.448,1,1V34z"/>
<linearGradient id="SVGID_3__44852" gradientUnits="userSpaceOnUse" x1="48" y1="44.5" x2="48" y2="51.8186" spreadMethod="reflect">
	<stop offset="0" style="stop-color:#6DC7FF"/>
	<stop offset="1" style="stop-color:#E6ABFF"/>
</linearGradient>
<path style="fill:url(#SVGID_3__44852);" d="M54,50c0,0.552-0.448,1-1,1H43c-0.552,0-1-0.448-1-1v-4c0-0.552,0.448-1,1-1h10  c0.552,0,1,0.448,1,1V50z"/>
<linearGradient id="SVGID_4__44852" gradientUnits="userSpaceOnUse" x1="13" y1="9" x2="13" y2="56.3161" spreadMethod="reflect">
	<stop offset="0" style="stop-color:#1A6DFF"/>
	<stop offset="1" style="stop-color:#C822FF"/>
</linearGradient>
<path style="fill:url(#SVGID_4__44852);" d="M18,20c0,0.552-0.448,1-1,1H9c-0.552,0-1-0.448-1-1v-8c0-0.552,0.448-1,1-1h6V9H9  c-1.654,0-3,1.346-3,3v8c0,1.654,1.346,3,3,3h8c1.654,0,3-1.346,3-3v-4h-2V20z"/>
<linearGradient id="SVGID_5__44852" gradientUnits="userSpaceOnUse" x1="40" y1="9" x2="40" y2="56.3161" spreadMethod="reflect">
	<stop offset="0" style="stop-color:#1A6DFF"/>
	<stop offset="1" style="stop-color:#C822FF"/>
</linearGradient>
<path style="fill:url(#SVGID_5__44852);" d="M55,9H25c-1.654,0-3,1.346-3,3v8c0,1.654,1.346,3,3,3h30c1.654,0,3-1.346,3-3v-8  C58,10.346,56.654,9,55,9z M56,20c0,0.552-0.448,1-1,1H25c-0.552,0-1-0.448-1-1v-8c0-0.552,0.448-1,1-1h30c0.552,0,1,0.448,1,1V20z"/>
<linearGradient id="SVGID_6__44852" gradientUnits="userSpaceOnUse" x1="40" y1="9" x2="40" y2="56.3161" spreadMethod="reflect">
	<stop offset="0" style="stop-color:#1A6DFF"/>
	<stop offset="1" style="stop-color:#C822FF"/>
</linearGradient>
<path style="fill:url(#SVGID_6__44852);" d="M55,25H25c-1.654,0-3,1.346-3,3v8c0,1.654,1.346,3,3,3h30c1.654,0,3-1.346,3-3v-8  C58,26.346,56.654,25,55,25z M56,36c0,0.552-0.448,1-1,1H25c-0.552,0-1-0.448-1-1v-8c0-0.552,0.448-1,1-1h30c0.552,0,1,0.448,1,1V36  z"/>
<linearGradient id="SVGID_7__44852" gradientUnits="userSpaceOnUse" x1="14" y1="9" x2="14" y2="56.3161" spreadMethod="reflect">
	<stop offset="0" style="stop-color:#1A6DFF"/>
	<stop offset="1" style="stop-color:#C822FF"/>
</linearGradient>
<polygon style="fill:url(#SVGID_7__44852);" points="10.707,15.293 9.293,16.707 12.5,19.914 18.707,13.707 17.293,12.293 12.5,17.086 "/>
<linearGradient id="SVGID_8__44852" gradientUnits="userSpaceOnUse" x1="13" y1="9" x2="13" y2="56.3161" spreadMethod="reflect">
	<stop offset="0" style="stop-color:#1A6DFF"/>
	<stop offset="1" style="stop-color:#C822FF"/>
</linearGradient>
<path style="fill:url(#SVGID_8__44852);" d="M18,36c0,0.552-0.448,1-1,1H9c-0.552,0-1-0.448-1-1v-8c0-0.552,0.448-1,1-1h6v-2H9  c-1.654,0-3,1.346-3,3v8c0,1.654,1.346,3,3,3h8c1.654,0,3-1.346,3-3v-4h-2V36z"/>
<linearGradient id="SVGID_9__44852" gradientUnits="userSpaceOnUse" x1="14" y1="9" x2="14" y2="56.3161" spreadMethod="reflect">
	<stop offset="0" style="stop-color:#1A6DFF"/>
	<stop offset="1" style="stop-color:#C822FF"/>
</linearGradient>
<polygon style="fill:url(#SVGID_9__44852);" points="10.707,31.293 9.293,32.707 12.5,35.914 18.707,29.707 17.293,28.293 12.5,33.086 "/>
<linearGradient id="SVGID_10__44852" gradientUnits="userSpaceOnUse" x1="33" y1="9" x2="33" y2="56.3161" spreadMethod="reflect">
	<stop offset="0" style="stop-color:#1A6DFF"/>
	<stop offset="1" style="stop-color:#C822FF"/>
</linearGradient>
<rect x="26" y="13" style="fill:url(#SVGID_10__44852);" width="14" height="2"/>
<linearGradient id="SVGID_11__44852" gradientUnits="userSpaceOnUse" x1="31" y1="9" x2="31" y2="56.3161" spreadMethod="reflect">
	<stop offset="0" style="stop-color:#1A6DFF"/>
	<stop offset="1" style="stop-color:#C822FF"/>
</linearGradient>
<rect x="26" y="17" style="fill:url(#SVGID_11__44852);" width="10" height="2"/>
<linearGradient id="SVGID_12__44852" gradientUnits="userSpaceOnUse" x1="33" y1="9" x2="33" y2="56.3161" spreadMethod="reflect">
	<stop offset="0" style="stop-color:#1A6DFF"/>
	<stop offset="1" style="stop-color:#C822FF"/>
</linearGradient>
<rect x="26" y="29" style="fill:url(#SVGID_12__44852);" width="14" height="2"/>
<linearGradient id="SVGID_13__44852" gradientUnits="userSpaceOnUse" x1="31" y1="9" x2="31" y2="56.3161" spreadMethod="reflect">
	<stop offset="0" style="stop-color:#1A6DFF"/>
	<stop offset="1" style="stop-color:#C822FF"/>
</linearGradient>
<rect x="26" y="33" style="fill:url(#SVGID_13__44852);" width="10" height="2"/>
<linearGradient id="SVGID_14__44852" gradientUnits="userSpaceOnUse" x1="40" y1="9" x2="40" y2="56.3161" spreadMethod="reflect">
	<stop offset="0" style="stop-color:#1A6DFF"/>
	<stop offset="1" style="stop-color:#C822FF"/>
</linearGradient>
<path style="fill:url(#SVGID_14__44852);" d="M55,41H25c-1.654,0-3,1.346-3,3v8c0,1.654,1.346,3,3,3h30c1.654,0,3-1.346,3-3v-8  C58,42.346,56.654,41,55,41z M56,52c0,0.552-0.448,1-1,1H25c-0.552,0-1-0.448-1-1v-8c0-0.552,0.448-1,1-1h30c0.552,0,1,0.448,1,1V52  z"/>
<linearGradient id="SVGID_15__44852" gradientUnits="userSpaceOnUse" x1="13" y1="9" x2="13" y2="56.3161" spreadMethod="reflect">
	<stop offset="0" style="stop-color:#1A6DFF"/>
	<stop offset="1" style="stop-color:#C822FF"/>
</linearGradient>
<path style="fill:url(#SVGID_15__44852);" d="M18,52c0,0.552-0.448,1-1,1H9c-0.552,0-1-0.448-1-1v-8c0-0.552,0.448-1,1-1h6v-2H9  c-1.654,0-3,1.346-3,3v8c0,1.654,1.346,3,3,3h8c1.654,0,3-1.346,3-3v-4h-2V52z"/>
<linearGradient id="SVGID_16__44852" gradientUnits="userSpaceOnUse" x1="33" y1="9" x2="33" y2="56.3161" spreadMethod="reflect">
	<stop offset="0" style="stop-color:#1A6DFF"/>
	<stop offset="1" style="stop-color:#C822FF"/>
</linearGradient>
<rect x="26" y="45" style="fill:url(#SVGID_16__44852);" width="14" height="2"/>
<linearGradient id="SVGID_17__44852" gradientUnits="userSpaceOnUse" x1="31" y1="9" x2="31" y2="56.3161" spreadMethod="reflect">
	<stop offset="0" style="stop-color:#1A6DFF"/>
	<stop offset="1" style="stop-color:#C822FF"/>
</linearGradient>
<rect x="26" y="49" style="fill:url(#SVGID_17__44852);" width="10" height="2"/>
<linearGradient id="SVGID_18__44852" gradientUnits="userSpaceOnUse" x1="13" y1="9" x2="13" y2="56.3161" spreadMethod="reflect">
	<stop offset="0" style="stop-color:#1A6DFF"/>
	<stop offset="1" style="stop-color:#C822FF"/>
</linearGradient>
<polygon style="fill:url(#SVGID_18__44852);" points="15.121,44.465 13,46.586 10.879,44.465 9.465,45.879 11.586,48 9.465,50.121   10.879,51.535 13,49.414 15.121,51.535 16.535,50.121 14.414,48 16.535,45.879 "/>
</svg>
